<?xml version="1.0" encoding="UTF-8" standalone="no"?>
<!-- Created with Inkscape (http://www.inkscape.org/) -->

<svg
   width="512"
   height="512"
   viewBox="0 0 135.46666 135.46666"
   version="1.1"
   id="svg5"
   inkscape:version="1.2.2 (732a01da63, 2022-12-09)"
   sodipodi:docname="favicon.svg"
   xmlns:inkscape="http://www.inkscape.org/namespaces/inkscape"
   xmlns:sodipodi="http://sodipodi.sourceforge.net/DTD/sodipodi-0.dtd"
   xmlns="http://www.w3.org/2000/svg"
   xmlns:svg="http://www.w3.org/2000/svg">
  <sodipodi:namedview
     id="namedview7"
     pagecolor="#ffffff"
     bordercolor="#000000"
     borderopacity="0.25"
     inkscape:showpageshadow="2"
     inkscape:pageopacity="0"
     inkscape:pagecheckerboard="0"
     inkscape:deskcolor="#d1d1d1"
     inkscape:document-units="px"
     showgrid="false"
     inkscape:zoom="0.22431634"
     inkscape:cx="-291.99834"
     inkscape:cy="735.56833"
     inkscape:window-width="1280"
     inkscape:window-height="961"
     inkscape:window-x="1912"
     inkscape:window-y="-8"
     inkscape:window-maximized="1"
     inkscape:current-layer="layer1" />
  <defs
     id="defs2" />
  <g
     inkscape:label="Layer 1"
     inkscape:groupmode="layer"
     id="layer1"
     transform="translate(-4.8827452,-7.7906926)">
    <rect
       style="fill:#000000;fill-opacity:1;stroke-width:0.264583;stroke-linecap:round;stroke-linejoin:round"
       id="rect3220"
       width="135.46666"
       height="135.46666"
       x="4.8827453"
       y="7.7906928"
       rx="15.874999"
       ry="15.874999" />
    <path
       d="m 66.22954,34.333791 q 1.733797,-1.943536 2.787124,-3.496899 1.053328,-1.553363 1.323649,-2.974226 0.316596,-1.379583 0.261664,-2.342694 -0.01365,-1.009385 -0.830283,-2.236492 -0.775351,-1.273383 -1.572008,-2.150269 -0.750381,-0.835604 -2.241158,-2.331704 -0.322593,-1.035684 0.75071,-2.238826 1.073302,-1.20314 2.13895,-1.000399 7.42392,6.95516 14.457668,13.22985 6.802374,6.068287 14.556541,12.65325 0.322595,1.035688 -0.750707,2.238828 -1.073302,1.203142 -2.138953,1.000398 -1.6559,-1.311 -2.61768,-2.002787 -0.915506,-0.650506 -2.268789,-1.276044 -1.312002,-0.671811 -2.316394,-0.570605 -0.963111,0.05493 -2.344024,0.485054 -1.334638,0.471403 -2.758163,1.69452 -1.423523,1.223116 -3.15732,3.166652 l -14.40702,16.149855 q 2.458881,1.528722 6.042332,1.98314 3.629727,0.495698 11.534695,0.484037 12.497798,0.429098 18.142636,0.06322 14.22028,-0.942823 6.96781,-8.742242 -0.045,-0.788003 1.02835,-1.991144 1.07331,-1.20314 1.86131,-1.248082 8.71961,8.111024 11.49609,10.587874 0.0925,0.08256 9.1424,7.823386 0.045,0.788003 -1.02835,1.991143 -1.07331,1.203142 -1.86131,1.248082 -1.91856,-1.296015 -4.03355,-2.185549 -2.0737,-0.93581 -3.72593,-1.412533 -1.60597,-0.435451 -4.25261,-0.635854 -2.55908,-0.205404 -4.05252,-0.208064 l -4.69671,0.04828 -4.91809,0.01699 -18.492853,-0.04325 q -0.746722,-0.0013 -1.354617,0.121178 -0.566614,0.07624 -0.948126,0.317601 -0.381521,0.241357 -0.592917,0.385175 -0.165124,0.185099 -0.45409,0.509022 -0.201419,0.318921 -0.283981,0.41147 -0.784336,0.879218 -0.975081,6.775404 l -1.101538,43.060673 q -0.06292,3.5172 0.859921,5.83626 0.922831,2.31905 2.993874,4.7483 0.04494,0.788 -1.028362,1.99114 -1.073303,1.20314 -1.861298,1.24809 -8.719611,-8.11103 -10.385504,-9.59714 -6.617272,-5.90316 -10.576916,-9.10309 -0.370202,-0.33025 0.03262,-0.96811 2.029088,-2.92662 2.520118,-9.71834 l 2.337329,-31.404463 q 0.216719,-3.130693 -0.145823,-4.866821 -0.316267,-1.694849 -1.904587,-3.361064 L 45.61878,84.172891 q -1.733796,1.943535 -2.787123,3.496897 -1.053328,1.553364 -1.369924,2.932946 -0.270321,1.420864 -0.25667,2.430249 0.05493,0.963111 0.830283,2.236493 0.816632,1.227109 1.567014,2.062713 0.796656,0.876886 2.287433,2.372984 0.322596,1.035687 -0.750707,2.238837 -1.073303,1.20314 -2.138953,1.00039 -7.42392,-6.955161 -14.226295,-13.023448 -7.033747,-6.274691 -14.787914,-12.859653 -0.322593,-1.035685 0.75071,-2.238826 1.073302,-1.203141 2.13895,-1.0004 1.6559,1.311001 2.571405,1.961506 0.96178,0.691788 2.273783,1.363599 1.353283,0.625537 2.316394,0.570605 1.004391,-0.101205 2.33903,-0.572609 1.380913,-0.430123 2.804437,-1.65324 1.423524,-1.223116 3.15732,-3.166651 z"
       id="path3103"
       style="font-weight:bold;font-size:127px;font-family:'Linux Libertine G';-inkscape-font-specification:'Linux Libertine G Bold';fill:#ffffff;stroke-width:0.264583;stroke-linecap:round;stroke-linejoin:round" />
  </g>
</svg>
