<?xml version="1.0" encoding="UTF-8" standalone="no"?>
<!-- Created with Inkscape (http://www.inkscape.org/) -->

<svg
   width="2000"
   height="600"
   viewBox="0 0 529.16665 158.75002"
   version="1.1"
   id="svg5"
   inkscape:version="1.2.2 (732a01da63, 2022-12-09)"
   sodipodi:docname="logo.svg"
   xmlns:inkscape="http://www.inkscape.org/namespaces/inkscape"
   xmlns:sodipodi="http://sodipodi.sourceforge.net/DTD/sodipodi-0.dtd"
   xmlns="http://www.w3.org/2000/svg"
   xmlns:svg="http://www.w3.org/2000/svg">
  <sodipodi:namedview
     id="namedview7"
     pagecolor="#ffffff"
     bordercolor="#000000"
     borderopacity="0.25"
     inkscape:showpageshadow="2"
     inkscape:pageopacity="0"
     inkscape:pagecheckerboard="0"
     inkscape:deskcolor="#d1d1d1"
     inkscape:document-units="px"
     showgrid="false"
     inkscape:zoom="0.1767767"
     inkscape:cx="2044.9528"
     inkscape:cy="1204.91"
     inkscape:window-width="1280"
     inkscape:window-height="961"
     inkscape:window-x="1912"
     inkscape:window-y="57"
     inkscape:window-maximized="1"
     inkscape:current-layer="layer1" />
  <defs
     id="defs2" />
  <g
     inkscape:label="Layer 1"
     inkscape:groupmode="layer"
     id="layer1">
    <path
       id="rect3453"
       style="fill:#000000;fill-opacity:1;stroke-width:2.117;stroke-linecap:round;stroke-linejoin:round"
       d="M 41.098269 18.520834 C 38.166691 18.520834 35.806602 20.880924 35.806602 23.812501 L 35.806602 119.06251 C 35.806602 121.99408 38.166691 124.35417 41.098269 124.35417 L 47.712852 124.35417 L 47.712852 35.718752 C 47.712852 32.787175 50.072942 30.427085 53.004519 30.427085 L 115.18161 30.427085 L 115.18161 23.812501 C 115.18161 20.880924 112.82152 18.520834 109.88994 18.520834 L 41.098269 18.520834 z M 56.973269 34.395835 C 54.041702 34.395835 51.681602 36.755925 51.681602 39.687502 L 51.681602 134.93751 C 51.681602 137.86908 54.041702 140.22917 56.973269 140.22917 L 125.76494 140.22917 C 128.69651 140.22917 131.05661 137.86908 131.05661 134.93751 L 131.05661 39.687502 C 131.05661 36.755925 128.69651 34.395835 125.76494 34.395835 L 56.973269 34.395835 z M 219.8884 58.208336 C 218.56548 58.208336 217.43893 58.68376 216.50876 59.634606 C 215.57858 60.564781 215.11349 61.691329 215.11349 63.014245 C 215.11349 64.33716 215.57858 65.463708 216.50876 66.393883 C 217.43893 67.324058 218.56548 67.789147 219.8884 67.789147 C 221.21131 67.789147 222.33786 67.324058 223.26804 66.393883 C 224.21888 65.463708 224.69431 64.33716 224.69431 63.014245 C 224.69431 61.691329 224.22922 60.564781 223.29904 59.634606 C 222.36887 58.68376 221.23198 58.208336 219.8884 58.208336 z M 422.82176 58.208336 C 421.49884 58.208336 420.37229 58.68376 419.44212 59.634606 C 418.51194 60.564781 418.04685 61.691329 418.04685 63.014245 C 418.04685 64.33716 418.51194 65.463708 419.44212 66.393883 C 420.37229 67.324058 421.49884 67.789147 422.82176 67.789147 C 424.14467 67.789147 425.27122 67.324058 426.2014 66.393883 C 427.15224 65.463708 427.62767 64.33716 427.62767 63.014245 C 427.62767 61.691329 427.16258 60.564781 426.2324 59.634606 C 425.30223 58.68376 424.16534 58.208336 422.82176 58.208336 z M 334.72997 58.590742 C 329.03023 58.617387 324.18436 60.58804 320.19236 64.502526 C 315.95489 68.657307 313.83616 73.855967 313.83616 80.098474 C 313.83616 85.658852 315.46913 90.464771 318.73508 94.516199 C 322.86919 99.642496 328.71898 102.20565 336.2844 102.20565 C 343.82915 102.20565 349.6686 99.518472 353.80271 94.144129 C 356.92396 90.092701 358.4846 85.40047 358.4846 80.067468 C 358.4846 73.824961 356.38653 68.626301 352.19041 64.47152 C 348.01495 60.316739 342.57858 58.363366 335.88132 58.611412 C 335.49375 58.595909 335.10995 58.588965 334.72997 58.590742 z M 162.80661 59.200524 L 162.80661 60.34774 L 164.20187 60.34774 C 165.38009 60.34774 166.31027 60.554447 166.9924 60.967858 C 167.6952 61.360598 168.16029 61.825687 168.38766 62.363121 C 168.61504 62.900556 168.72873 64.244146 168.72873 66.393883 L 168.72873 94.051111 C 168.72873 96.159508 168.61504 97.461756 168.38766 97.95785 C 168.09827 98.660648 167.68486 99.156743 167.14743 99.446131 C 166.40329 99.880213 165.42143 100.09725 164.20187 100.09725 L 162.80661 100.09725 L 162.80661 101.24447 L 184.01462 101.24447 L 184.01462 100.09725 C 182.46433 100.09725 181.33778 99.911219 180.63498 99.539149 C 179.93218 99.146408 179.45675 98.681319 179.20871 98.143885 C 178.96066 97.60645 178.83664 96.24219 178.83664 94.051111 L 178.83664 82.578943 L 180.38693 81.276697 L 190.02975 93.399988 C 191.93144 95.797772 192.88229 97.430751 192.88229 98.298914 C 192.88229 98.753666 192.67559 99.136073 192.26218 99.446131 C 191.86943 99.756189 190.9806 99.973231 189.59567 100.09725 L 189.59567 101.24447 L 211.48581 101.24447 L 211.48581 100.09725 C 210.26625 100.09725 209.10869 99.766524 208.01315 99.105067 C 206.5042 98.174892 204.70586 96.407554 202.61813 93.803064 L 187.82834 75.292565 L 200.13766 65.432702 C 203.15556 62.993576 205.07793 61.567304 205.90475 61.153893 C 206.75225 60.719811 207.9098 60.451093 209.37741 60.34774 L 209.37741 59.200524 L 192.97531 59.200524 L 192.97531 60.34774 C 194.77365 60.409752 195.9002 60.554446 196.35495 60.781823 C 197.24378 61.236575 197.6882 61.856693 197.6882 62.642174 C 197.6882 63.696372 196.60299 65.101974 194.43259 66.858971 L 178.83664 79.478357 L 178.83664 66.393883 C 178.83664 64.264816 178.96066 62.941897 179.20871 62.425133 C 179.51877 61.743005 179.94251 61.257245 180.47995 60.967858 C 181.22409 60.554447 182.3093 60.34774 183.73556 60.34774 L 183.73556 59.200524 L 162.80661 59.200524 z M 397.39695 59.200524 L 397.39695 60.34774 C 398.76121 60.430423 399.68105 60.761153 400.15647 61.339928 C 400.6319 61.898033 400.86961 63.189947 400.86961 65.215661 L 400.86961 95.229334 C 400.86961 97.275719 400.6629 98.536626 400.24949 99.012049 C 399.62937 99.714848 398.67852 100.08692 397.39695 100.12826 L 397.39695 101.24447 L 413.05491 101.24447 L 413.05491 100.12826 C 411.66998 100.04558 410.73981 99.725183 410.26438 99.167078 C 409.78896 98.588303 409.55125 97.275719 409.55125 95.229334 L 409.55125 59.200524 L 397.39695 59.200524 z M 336.25339 60.595787 C 338.34112 60.595787 340.1808 61.164229 341.77244 62.30111 C 343.38474 63.43799 344.70766 65.391363 345.74119 68.161217 C 346.77471 70.910401 347.29148 75.065195 347.29148 80.625573 C 347.29148 85.297118 346.78505 89.090177 345.77219 92.004724 C 344.75934 94.898602 343.3434 97.007005 341.52439 98.32992 C 340.09812 99.363448 338.32045 99.880213 336.19138 99.880213 C 333.02879 99.880213 330.56898 98.681317 328.81199 96.283533 C 326.29018 92.852222 325.02927 87.550208 325.02927 80.377527 C 325.02927 74.341725 325.84576 69.711507 327.47873 66.486901 C 329.48378 62.559496 332.40867 60.595787 336.25339 60.595787 z M 60.944603 61.035037 L 87.105798 61.035037 L 87.105798 62.469058 C 85.32297 62.469058 83.966458 62.727445 83.036279 63.244205 C 82.36449 63.605934 81.834798 64.21314 81.447229 65.065799 C 81.137179 65.711758 80.982141 67.365409 80.982141 70.026737 L 80.982141 86.382328 L 100.47708 70.608097 C 103.19008 68.411859 104.5466 66.654849 104.5466 65.3371 C 104.5466 64.355251 103.99107 63.58011 102.88003 63.011661 C 102.31159 62.727451 100.90341 62.546578 98.655482 62.469058 L 98.655482 61.035037 L 119.15811 61.035037 L 119.15811 62.469058 C 117.32361 62.598248 115.87666 62.934149 114.81729 63.476749 C 113.78376 63.993518 111.38079 65.776363 107.60842 68.82526 L 92.221765 81.150089 L 110.70901 104.28821 C 113.31867 107.54382 115.5666 109.753 117.45278 110.91572 C 118.8222 111.74252 120.26915 112.15595 121.79361 112.15595 L 121.79361 113.58997 L 94.430933 113.58997 L 94.430933 112.15595 C 96.162081 112.00092 97.273134 111.72962 97.764063 111.34205 C 98.280823 110.95448 98.53921 110.47646 98.53921 109.90803 C 98.53921 108.82282 97.350643 106.78159 94.973536 103.78437 L 82.920007 88.630253 L 80.982141 90.258061 L 80.982141 104.59827 C 80.982141 107.33712 81.137179 109.04245 81.447229 109.71424 C 81.757288 110.38603 82.351567 110.9674 83.230066 111.45832 C 84.108565 111.9234 85.516756 112.15595 87.454614 112.15595 L 87.454614 113.58997 L 60.944603 113.58997 L 60.944603 112.15595 L 62.688683 112.15595 C 64.213131 112.15595 65.44046 111.88464 66.370629 111.34205 C 67.042428 110.98031 67.559182 110.36018 67.920922 109.48169 C 68.205142 108.86158 68.347253 107.23377 68.347253 104.59827 L 68.347253 70.026737 C 68.347253 67.339569 68.205142 65.660074 67.920922 64.988284 C 67.636702 64.316495 67.055331 63.735124 66.176842 63.244205 C 65.324183 62.727445 64.161452 62.469058 62.688683 62.469058 L 60.944603 62.469058 L 60.944603 61.035037 z M 251.08029 71.385827 C 249.50933 71.385827 248.04172 71.757898 246.67746 72.502038 C 245.3132 73.225507 243.88693 74.393397 242.39865 76.0057 L 242.39865 72.253991 L 230.58542 72.253991 L 230.58542 73.401208 C 231.86699 73.566572 232.70415 73.917973 233.09689 74.455407 C 233.51031 74.992842 233.71701 76.357102 233.71701 78.548181 L 233.71701 94.919275 C 233.71701 97.151695 233.54131 98.495285 233.18991 98.950037 C 232.67315 99.611495 231.80498 100.00424 230.58542 100.12826 L 230.58542 101.24447 L 245.25119 101.24447 L 245.25119 100.12826 C 244.15565 99.983566 243.40117 99.62183 242.98776 99.043055 C 242.59502 98.464279 242.39865 97.089683 242.39865 94.919275 L 242.39865 79.385339 C 243.92827 76.842861 245.58192 75.571618 247.35959 75.571618 C 247.89702 75.571618 248.38278 75.747318 248.81687 76.098718 C 249.27162 76.429447 249.59201 76.904871 249.77805 77.524987 C 249.96408 78.145104 250.0571 79.643724 250.0571 82.020837 L 250.0571 94.919275 C 250.0571 96.96566 249.89174 98.247238 249.56101 98.764002 C 249.08558 99.528812 248.3001 99.983566 247.20456 100.12826 L 247.20456 101.24447 L 261.87033 101.24447 L 261.87033 100.12826 C 260.58876 99.983566 259.74126 99.642501 259.32785 99.105067 C 258.93511 98.546962 258.73874 97.151695 258.73874 94.919275 L 258.73874 83.633142 C 258.73874 80.284513 258.57338 78.02108 258.24265 76.842858 C 257.82924 75.292567 257.00241 74.000653 255.76218 72.967126 C 254.52195 71.912928 252.96131 71.385827 251.08029 71.385827 z M 278.52048 71.385827 C 274.88246 71.385827 271.90589 72.429693 269.59079 74.517419 C 267.27569 76.584474 266.11814 79.033942 266.11814 81.865808 C 266.11814 84.036216 266.73825 85.948248 267.97849 87.601892 C 269.21872 89.255536 271.22377 90.588791 273.99362 91.601648 C 271.61651 92.593835 269.88018 93.761725 268.78464 95.10531 C 267.6891 96.448896 267.14133 97.833828 267.14133 99.260096 C 267.14133 101.61654 268.48492 103.45622 271.17209 104.77914 C 269.22906 105.2959 267.8958 105.92636 267.17234 106.6705 C 266.46954 107.43531 266.11814 108.29314 266.11814 109.24398 C 266.11814 110.23617 266.58322 111.17668 267.5134 112.06552 C 268.44357 112.97502 269.98354 113.67782 272.13327 114.17391 C 274.28301 114.69068 276.66013 114.94906 279.26462 114.94906 C 282.73727 114.94906 285.80686 114.44263 288.47336 113.42977 C 290.23036 112.74765 291.6463 111.68311 292.72116 110.23617 C 293.79603 108.8099 294.33347 107.21826 294.33347 105.46127 C 294.33347 102.71208 293.16558 100.67603 290.82981 99.353113 C 289.19683 98.402268 286.20993 97.926844 281.86911 97.926844 L 276.5051 97.988856 C 275.22353 97.988856 274.29335 97.751143 273.71457 97.275721 C 273.15647 96.800298 272.87741 96.190515 272.87741 95.446375 C 272.87741 94.598882 273.18747 93.875411 273.80759 93.275965 C 274.44838 92.655848 275.23386 92.345789 276.16403 92.345789 C 278.52048 92.449142 279.76071 92.500818 279.88474 92.500818 C 281.41436 92.500818 283.16103 92.077071 285.12473 91.229578 C 287.1091 90.361415 288.66973 89.172854 289.80661 87.663904 C 290.96416 86.134283 291.54294 84.335939 291.54294 82.268884 C 291.54294 81.049322 291.29489 79.881432 290.7988 78.765222 C 290.40606 77.9384 289.70326 77.018557 288.6904 76.0057 L 294.24045 76.0057 L 294.24045 72.595056 L 284.47361 72.595056 C 282.42722 71.788904 280.44284 71.385827 278.52048 71.385827 z M 383.41331 71.385827 C 381.84235 71.385827 380.37473 71.757898 379.01048 72.502038 C 377.64622 73.225507 376.21995 74.393397 374.73167 76.0057 L 374.73167 72.253991 L 362.91843 72.253991 L 362.91843 73.401208 C 364.20001 73.566572 365.03717 73.917973 365.42991 74.455407 C 365.84332 74.992842 366.05003 76.357102 366.05003 78.548181 L 366.05003 94.919275 C 366.05003 97.151695 365.87433 98.495285 365.52293 98.950037 C 365.00616 99.611495 364.138 100.00424 362.91843 100.12826 L 362.91843 101.24447 L 377.58421 101.24447 L 377.58421 100.12826 C 376.48867 99.983566 375.73419 99.62183 375.32078 99.043055 C 374.92804 98.464279 374.73167 97.089683 374.73167 94.919275 L 374.73167 79.385339 C 376.26129 76.842861 377.91494 75.571618 379.6926 75.571618 C 380.23004 75.571618 380.7158 75.747318 381.14988 76.098718 C 381.60463 76.429447 381.92503 76.904871 382.11106 77.524987 C 382.2971 78.145104 382.39011 79.643724 382.39011 82.020837 L 382.39011 94.919275 C 382.39011 96.96566 382.22475 98.247238 381.89402 98.764002 C 381.4186 99.528812 380.63311 99.983566 379.53757 100.12826 L 379.53757 101.24447 L 394.20335 101.24447 L 394.20335 100.12826 C 392.92177 99.983566 392.07428 99.642501 391.66087 99.105067 C 391.26813 98.546962 391.07176 97.151695 391.07176 94.919275 L 391.07176 83.633142 C 391.07176 80.284513 390.90639 78.02108 390.57566 76.842858 C 390.16225 75.292567 389.33543 74.000653 388.09519 72.967126 C 386.85496 71.912928 385.29433 71.385827 383.41331 71.385827 z M 454.01365 71.385827 C 452.44269 71.385827 450.97508 71.757898 449.61082 72.502038 C 448.24656 73.225507 446.82029 74.393397 445.33201 76.0057 L 445.33201 72.253991 L 433.51878 72.253991 L 433.51878 73.401208 C 434.80035 73.566572 435.63751 73.917973 436.03025 74.455407 C 436.44366 74.992842 436.65037 76.357102 436.65037 78.548181 L 436.65037 94.919275 C 436.65037 97.151695 436.47467 98.495285 436.12327 98.950037 C 435.60651 99.611495 434.73834 100.00424 433.51878 100.12826 L 433.51878 101.24447 L 448.18455 101.24447 L 448.18455 100.12826 C 447.08901 99.983566 446.33453 99.62183 445.92112 99.043055 C 445.52838 98.464279 445.33201 97.089683 445.33201 94.919275 L 445.33201 79.385339 C 446.86163 76.842861 448.51528 75.571618 450.29295 75.571618 C 450.83038 75.571618 451.31614 75.747318 451.75022 76.098718 C 452.20498 76.429447 452.52537 76.904871 452.71141 77.524987 C 452.89744 78.145104 452.99046 79.643724 452.99046 82.020837 L 452.99046 94.919275 C 452.99046 96.96566 452.82509 98.247238 452.49437 98.764002 C 452.01894 99.528812 451.23346 99.983566 450.13792 100.12826 L 450.13792 101.24447 L 464.80369 101.24447 L 464.80369 100.12826 C 463.52212 99.983566 462.67462 99.642501 462.26121 99.105067 C 461.86847 98.546962 461.6721 97.151695 461.6721 94.919275 L 461.6721 83.633142 C 461.6721 80.284513 461.50674 78.02108 461.17601 76.842858 C 460.7626 75.292567 459.93577 74.000653 458.69554 72.967126 C 457.4553 71.912928 455.89467 71.385827 454.01365 71.385827 z M 482.22899 71.385827 C 478.71499 71.385827 475.64541 72.822435 473.02025 75.695642 C 470.41576 78.548178 469.11351 82.392913 469.11351 87.229822 C 469.11351 91.177897 470.00234 94.485196 471.78001 97.151697 C 473.99176 100.45899 477.24738 102.11264 481.54686 102.11264 C 484.04799 102.11264 486.24941 101.45118 488.15111 100.12826 C 490.0528 98.784674 491.78913 96.510906 493.36009 93.306971 L 492.30589 92.624842 C 491.14834 94.42318 490.06313 95.673752 489.05028 96.376551 C 488.03742 97.058679 486.91087 97.399744 485.67064 97.399744 C 483.66559 97.399744 481.94993 96.541914 480.52366 94.826258 C 478.66331 92.593838 477.64012 89.555257 477.45408 85.710535 L 493.36009 85.710535 C 493.19473 80.976978 492.02684 77.411297 489.85643 75.013513 C 487.70669 72.595058 485.1642 71.385827 482.22899 71.385827 z M 212.07492 72.253991 L 212.07492 73.401208 C 213.43918 73.48389 214.35902 73.81462 214.83444 74.393395 C 215.30986 74.9515 215.54758 76.253749 215.54758 78.300134 L 215.54758 95.229334 C 215.54758 97.275719 215.34087 98.536626 214.92746 99.012049 C 214.30734 99.714848 213.35649 100.08692 212.07492 100.12826 L 212.07492 101.24447 L 227.73288 101.24447 L 227.73288 100.12826 C 226.34795 100.04558 225.41778 99.725183 224.94235 99.167078 C 224.46693 98.588303 224.22922 97.275719 224.22922 95.229334 L 224.22922 72.253991 L 212.07492 72.253991 z M 415.00828 72.253991 L 415.00828 73.401208 C 416.37254 73.48389 417.29238 73.81462 417.7678 74.393395 C 418.24322 74.9515 418.48094 76.253749 418.48094 78.300134 L 418.48094 95.229334 C 418.48094 97.275719 418.27423 98.536626 417.86082 99.012049 C 417.2407 99.714848 416.28985 100.08692 415.00828 100.12826 L 415.00828 101.24447 L 430.66624 101.24447 L 430.66624 100.12826 C 429.28131 100.04558 428.35113 99.725183 427.87571 99.167078 C 427.40029 98.588303 427.16258 97.275719 427.16258 95.229334 L 427.16258 72.253991 L 415.00828 72.253991 z M 279.10959 73.30819 C 280.30848 73.30819 281.23866 73.804285 281.90012 74.796472 C 282.83029 76.140058 283.29538 78.661873 283.29538 82.361902 C 283.29538 85.648519 282.88197 87.860276 282.05515 88.997156 C 281.22833 90.134036 280.1948 90.702478 278.95456 90.702478 C 277.83835 90.702478 276.86683 90.134036 276.04001 88.997156 C 275.23386 87.839605 274.83078 85.720867 274.83078 82.640954 C 274.83078 78.837573 275.2442 76.336428 276.07102 75.137536 C 276.89784 73.917974 277.9107 73.30819 279.10959 73.30819 z M 481.7639 73.401208 C 482.48737 73.401208 483.06614 73.587243 483.50023 73.959313 C 484.26504 74.600101 484.82314 75.540614 485.17454 76.780847 C 485.54661 78.02108 485.73265 80.305183 485.73265 83.633142 L 477.29905 83.633142 L 477.29905 82.547937 C 477.29905 79.344001 477.90884 76.822186 479.1284 74.982507 C 479.81053 73.928309 480.68903 73.401208 481.7639 73.401208 z M 277.28025 105.52328 C 282.1585 105.52328 285.15574 105.63697 286.27195 105.86434 C 287.40883 106.09172 288.25632 106.51547 288.81443 107.13558 C 289.12448 107.48698 289.27951 107.92107 289.27951 108.43783 C 289.27951 109.82276 288.45269 110.89763 286.79905 111.66244 C 285.16607 112.42725 282.91297 112.80966 280.03977 112.80966 C 276.67047 112.80966 274.37603 112.37557 273.15647 111.50741 C 271.9369 110.65992 271.32712 109.70907 271.32712 108.65487 C 271.32712 107.55933 271.91623 106.69117 273.09445 106.05038 C 273.77658 105.69898 275.17185 105.52328 277.28025 105.52328 z " />
  </g>
</svg>
