<?xml version="1.0" encoding="UTF-8" standalone="no"?>
<!-- Created with Inkscape (http://www.inkscape.org/) -->

<svg
   width="640"
   height="400"
   viewBox="0 0 169.33333 105.83333"
   version="1.1"
   id="svg5"
   inkscape:version="1.2.2 (732a01da63, 2022-12-09)"
   sodipodi:docname="C.svg"
   xmlns:inkscape="http://www.inkscape.org/namespaces/inkscape"
   xmlns:sodipodi="http://sodipodi.sourceforge.net/DTD/sodipodi-0.dtd"
   xmlns="http://www.w3.org/2000/svg"
   xmlns:svg="http://www.w3.org/2000/svg">
  <sodipodi:namedview
     id="namedview7"
     pagecolor="#000000"
     bordercolor="#000000"
     borderopacity="0.25"
     inkscape:showpageshadow="2"
     inkscape:pageopacity="0"
     inkscape:pagecheckerboard="0"
     inkscape:deskcolor="#d1d1d1"
     inkscape:document-units="px"
     showgrid="false"
     inkscape:zoom="0.4204826"
     inkscape:cx="258.03683"
     inkscape:cy="268.73882"
     inkscape:window-width="1280"
     inkscape:window-height="961"
     inkscape:window-x="1912"
     inkscape:window-y="-8"
     inkscape:window-maximized="1"
     inkscape:current-layer="layer1" />
  <defs
     id="defs2" />
  <g
     inkscape:label="Layer 1"
     inkscape:groupmode="layer"
     id="layer1"
     transform="translate(-4.8827452,-7.7906926)">
    <path
       d="m 132.64922,55.710289 q 2.51147,0 4.83691,0.418579 2.32544,0.418579 4.06952,0.837158 1.76734,0.418579 2.88355,0.418579 0.48834,5.162476 1.04644,7.813477 l -2.09289,0.279053 q -0.48834,-1.627808 -1.34876,-2.953308 -0.86041,-1.325501 -2.20916,-2.441712 -1.34876,-1.116211 -3.37189,-1.744079 -1.99988,-0.627869 -4.4881,-0.627869 -4.51135,0 -7.23212,3.534668 -2.76727,3.627685 -2.76727,10.231933 0,1.976624 0.37207,3.883484 0.37207,1.906861 1.23248,3.767212 0.88367,1.860352 2.16266,3.27887 1.30225,1.395264 3.30213,2.255676 1.99988,0.860413 4.44159,0.860413 1.97662,0 3.23236,-0.418579 1.27899,-0.441834 2.48822,-1.581299 v -7.09259 q 0,-1.325501 -0.83716,-1.697571 -0.83716,-0.395325 -3.06958,-0.58136 -0.20929,-0.20929 -0.20929,-0.883667 0,-0.674378 0.20929,-0.883667 4.46484,0.09302 7.09259,0.09302 2.83704,0 5.67407,-0.09302 0.20929,0.209289 0.20929,0.883667 0,0.674377 -0.20929,0.883667 -1.11621,0.116272 -1.65106,0.604614 -0.53485,0.488342 -0.53485,1.674317 v 5.581054 q 0,0.720886 0.76739,1.325501 -2.3952,1.930114 -6.23217,3.06958 -3.81372,1.116211 -8.02277,1.116211 -4.02301,0 -7.04608,-0.860413 -2.99982,-0.860412 -5.32526,-2.744018 -2.51147,-2.023133 -3.88348,-5.092713 -1.34876,-3.092834 -1.34876,-6.394958 0,-3.86023 1.34876,-6.999573 1.34875,-3.139343 3.88348,-5.302002 5.18573,-4.418335 12.62714,-4.418335 z"
       id="path3477"
       style="font-weight:bold;font-size:47.625px;font-family:'Linux Libertine G';-inkscape-font-specification:'Linux Libertine G Bold';text-align:center;letter-spacing:2.11667px;text-anchor:middle;fill:#ffffff;stroke-width:0.264583;stroke-linecap:round;stroke-linejoin:round" />
    <path
       d="m 105.95265,87.057213 q -0.69763,0.348816 -1.25573,0.465088 -0.55811,0.116272 -1.74408,0.116272 -0.97669,-0.930176 -1.90686,-2.11615 L 85.093461,66.570091 q -0.813904,-0.95343 -1.139466,-0.95343 -0.37207,0 -0.37207,0.95343 v 14.161927 q 0,1.11621 0.04651,1.837097 0.06976,0.720886 0.302307,1.255737 0.232544,0.534851 0.441834,0.813904 0.232544,0.255798 0.813903,0.465088 0.58136,0.186035 1.046448,0.255798 0.488342,0.06976 1.488281,0.162781 0.20929,0.209289 0.20929,0.813904 0,0.604614 -0.20929,0.813903 -4.743896,-0.09302 -5.325256,-0.09302 -0.697632,0 -5.348511,0.09302 -0.209289,-0.209289 -0.209289,-0.813903 0,-0.604615 0.209289,-0.813904 0.976685,-0.09302 1.465027,-0.162781 0.511597,-0.09302 1.069702,-0.279053 0.558106,-0.209289 0.79065,-0.488342 0.232544,-0.279053 0.465088,-0.813904 0.232544,-0.534851 0.279052,-1.232483 0.06976,-0.720886 0.06976,-1.813842 V 60.872765 q -0.232544,-1.046448 -1.278992,-1.976624 -1.046448,-0.930176 -2.464966,-1.023193 -0.20929,-0.20929 -0.20929,-0.813904 0,-0.604614 0.20929,-0.813904 l 7.743713,0.09302 4.255555,4.999694 12.62714,14.882813 q 0.37207,0.418579 0.62787,0.58136 0.27905,0.162781 0.46509,0 0.18603,-0.162781 0.18603,-0.744141 V 62.663353 q 0,-0.837158 -0.0465,-1.441772 -0.0232,-0.604615 -0.16278,-1.092957 -0.11627,-0.488342 -0.23254,-0.790649 -0.093,-0.325562 -0.39533,-0.558106 -0.3023,-0.255798 -0.53485,-0.37207 -0.23254,-0.139527 -0.74414,-0.255799 -0.5116,-0.116272 -0.90692,-0.16278 -0.372074,-0.04651 -1.139469,-0.116272 -0.20929,-0.20929 -0.20929,-0.813904 0,-0.604614 0.20929,-0.813904 4.743899,0.09302 5.534549,0.09302 0.48834,0 5.13922,-0.09302 0.20929,0.20929 0.20929,0.813904 0,0.604614 -0.20929,0.813904 -0.97668,0.09302 -1.48828,0.186035 -0.48834,0.06976 -1.04645,0.279053 -0.5581,0.186035 -0.79065,0.465087 -0.23254,0.279053 -0.46509,0.813904 -0.23254,0.534851 -0.3023,1.255738 -0.0465,0.697631 -0.0465,1.790588 v 19.533691 z"
       id="path3475"
       style="font-weight:bold;font-size:47.625px;font-family:'Linux Libertine G';-inkscape-font-specification:'Linux Libertine G Bold';text-align:center;letter-spacing:2.11667px;text-anchor:middle;fill:#ffffff;stroke-width:0.264583;stroke-linecap:round;stroke-linejoin:round" />
    <path
       d="m 60.606063,62.151756 q 0,-0.976684 -0.09302,-1.674316 -0.09302,-0.697632 -0.37207,-1.16272 -0.255799,-0.465088 -0.511597,-0.720886 -0.255798,-0.279053 -0.790649,-0.418579 -0.534851,-0.162781 -0.976685,-0.20929 -0.418579,-0.04651 -1.209228,-0.09302 Q 56.304,57.663658 56.304,57.059044 q 0,-0.604614 0.348816,-0.813904 3.81372,0.09302 7.348388,0.09302 3.418396,0 7.232117,-0.09302 0.348816,0.20929 0.348816,0.813904 0,0.604614 -0.348816,0.813904 -0.790649,0.04651 -1.232483,0.09302 -0.418579,0.04651 -0.95343,0.20929 -0.534851,0.139526 -0.79065,0.418579 -0.255798,0.255798 -0.534851,0.720886 -0.255798,0.465088 -0.348816,1.16272 -0.09302,0.697632 -0.09302,1.674316 v 19.091858 q 0,0.976685 0.09302,1.674317 0.09302,0.697631 0.348816,1.162719 0.279053,0.465088 0.534851,0.744141 0.255799,0.255798 0.79065,0.418579 0.534851,0.139526 0.95343,0.186035 0.441834,0.04651 1.232483,0.09302 0.348816,0.209289 0.348816,0.813904 0,0.604614 -0.348816,0.813903 -3.813721,-0.09302 -7.232117,-0.09302 -3.534668,0 -7.348388,0.09302 Q 56.304,86.940941 56.304,86.336327 q 0,-0.604615 0.348816,-0.813904 0.790649,-0.04651 1.209228,-0.09302 0.441834,-0.04651 0.976685,-0.186035 0.534851,-0.162781 0.790649,-0.418579 0.255798,-0.279053 0.511597,-0.744141 0.279052,-0.465088 0.37207,-1.162719 0.09302,-0.697632 0.09302,-1.674317 z"
       id="path3473"
       style="font-weight:bold;font-size:47.625px;font-family:'Linux Libertine G';-inkscape-font-specification:'Linux Libertine G Bold';text-align:center;letter-spacing:2.11667px;text-anchor:middle;fill:#ffffff;stroke-width:0.264583;stroke-linecap:round;stroke-linejoin:round" />
    <path
       id="path950"
       style="font-weight:bold;font-size:63.5px;font-family:'Linux Libertine G';-inkscape-font-specification:'Linux Libertine G Bold';text-align:center;text-anchor:middle;vector-effect:non-scaling-stroke;fill:#ffffff;stroke-width:0.264583;stroke-linecap:round;stroke-linejoin:round;-inkscape-stroke:hairline"
       d="m 40.53706,18.195788 c -0.311155,-0.0047 -0.621215,0.17045 -0.930692,0.524516 -0.353688,0.404647 -0.475338,0.778809 -0.364319,1.122929 0.501947,0.493643 0.879812,0.878464 1.132747,1.154451 0.268495,0.28959 0.534117,0.645297 0.796851,1.067119 0.276337,0.406255 0.418376,0.777748 0.42633,1.114144 0.02156,0.320834 -0.01799,0.711634 -0.118856,1.172538 -0.08531,0.474508 -0.301141,0.972135 -0.646989,1.493449 -0.345847,0.521313 -0.804284,1.109023 -1.375626,1.762683 L 22.703523,46.773889 c -0.571341,0.653659 -1.091824,1.186899 -1.562178,1.599385 -0.470355,0.412486 -0.934887,0.69275 -1.393713,0.840776 -0.443265,0.16163 -0.832415,0.26105 -1.166854,0.298173 -0.32083,0.02156 -0.707988,-0.06995 -1.16117,-0.273885 -0.439579,-0.219497 -0.820689,-0.442905 -1.143599,-0.670244 -0.307348,-0.213734 -0.73917,-0.535995 -1.295528,-0.967383 -0.355882,-0.06398 -0.710848,0.106435 -1.064535,0.51108 -0.353689,0.404648 -0.474821,0.778811 -0.363802,1.122929 2.606802,2.168701 5.092832,4.286938 7.45846,6.354651 2.28781,1.999696 4.680915,4.146192 7.178889,6.4394 0.355881,0.06398 0.710846,-0.106432 1.064535,-0.51108 0.353687,-0.404646 0.47482,-0.778809 0.363802,-1.122929 -0.501947,-0.493643 -0.886987,-0.885531 -1.155485,-1.175122 -0.252934,-0.275988 -0.517931,-0.616936 -0.794267,-1.023193 -0.262734,-0.421822 -0.404771,-0.79331 -0.42633,-1.114144 -0.008,-0.336398 0.03096,-0.741957 0.116272,-1.216463 0.100871,-0.460905 0.323878,-0.951984 0.669726,-1.473295 0.345849,-0.521315 0.804802,-1.108507 1.376144,-1.762166 l 7.794873,-8.917802 c 0.535032,0.550014 0.857796,1.106847 0.968933,1.670699 0.126699,0.577454 0.159341,1.388171 0.09767,2.432409 l -0.06718,1.045415 h -0.0016 L 37.33514,87.433939 h 0.0031 l -0.07648,1.185457 c -0.140751,2.265441 -0.544329,3.889201 -1.210779,4.871537 -0.132113,0.213968 -0.135874,0.375381 -0.01137,0.484208 1.33061,1.053226 3.10848,2.552631 5.334041,4.497917 0.560282,0.489722 2.307789,2.071852 5.241541,4.745962 0.262503,-0.0176 0.570286,-0.2289 0.923975,-0.63355 0.353688,-0.40465 0.522002,-0.73847 0.504361,-1.00097 -0.698507,-0.80272 -1.205933,-1.588657 -1.521354,-2.358517 C 46.206805,98.45612 46.05372,97.4845 46.062821,96.311949 l 0.137976,-8.930204 h -0.0057 L 46.3894,51.161218 c 0.0062,-0.809771 0.01466,-1.562583 0.02532,-2.273763 h 5.17e-4 c 0.06395,-1.474485 0.206323,-2.340235 0.427364,-2.593124 0.02721,-0.03113 0.07399,-0.100237 0.140043,-0.207222 l 0.224276,-0.256832 c 0.06998,-0.04865 0.168206,-0.1136 0.294556,-0.195337 0.12635,-0.08174 0.283719,-0.136491 0.472322,-0.163814 0.202207,-0.04289 0.428064,-0.0651 0.676962,-0.06718 l 0.321427,-0.0026 h 0.02636 l 99.350013,-0.04651 v 0.0052 l 2.9471,-0.02274 2.45877,-0.03359 2.34817,-0.04806 c 0.49779,-0.0042 1.1736,0.0239 2.02727,0.08372 0.88284,0.05787 1.59283,0.156386 2.12959,0.296106 0.55232,0.153326 1.1753,0.38289 1.86965,0.687813 0.70796,0.289356 1.38392,0.646779 2.02778,1.072286 0.2625,-0.01764 0.5708,-0.228907 0.92449,-0.633553 0.35369,-0.404648 0.52149,-0.738472 0.50385,-1.000972 -3.04257,-2.549592 -4.57944,-3.837675 -4.61057,-3.864881 -0.9338,-0.816202 -2.86745,-2.561758 -5.8012,-5.235856 -0.2625,0.01764 -0.5708,0.228908 -0.92449,0.633553 -0.35369,0.404646 -0.52148,0.738471 -0.50384,1.000973 2.44366,2.575185 1.29706,4.043689 -3.43959,4.405932 -0.54604,0.04095 -1.20053,0.07052 -1.94096,0.09095 v -0.0047 c -26.06035,0.04268 -59.097677,0.04113 -99.366033,-0.0062 -0.38032,-0.0075 -0.761683,-0.01509 -1.163237,-0.02481 -2.634803,0.03056 -4.557642,-0.03099 -5.769156,-0.183968 -1.195952,-0.139372 -2.2066,-0.459417 -3.03134,-0.960665 l 7.121529,-8.147306 c 0.571342,-0.65366 1.092341,-1.186899 1.562696,-1.599386 0.470355,-0.412486 0.927194,-0.699816 1.370458,-0.861446 0.458828,-0.148026 0.848604,-0.232688 1.169438,-0.254248 0.334438,-0.03712 0.721594,0.05387 1.16117,0.273368 0.453182,0.203934 0.833152,0.4131 1.140498,0.626836 0.322911,0.227336 0.762424,0.556665 1.318783,0.988053 0.355882,0.06398 0.710847,-0.106433 1.064534,-0.51108 0.353689,-0.404647 0.474821,-0.778809 0.363802,-1.122929 -2.606801,-2.1687 -5.05386,-4.253153 -7.34167,-6.252848 -2.365628,-2.067713 -4.797704,-4.247996 -7.295679,-6.541203 -0.04448,-0.008 -0.08887,-0.01276 -0.133325,-0.01344 z" />
  </g>
</svg>
