<?xml version="1.0" encoding="UTF-8" standalone="no"?>
<!-- Created with Inkscape (http://www.inkscape.org/) -->

<svg
   width="512"
   height="512"
   viewBox="0 0 135.46666 135.46667"
   version="1.1"
   id="svg5"
   inkscape:version="1.2.2 (732a01da63, 2022-12-09)"
   sodipodi:docname="logo.svg"
   xmlns:inkscape="http://www.inkscape.org/namespaces/inkscape"
   xmlns:sodipodi="http://sodipodi.sourceforge.net/DTD/sodipodi-0.dtd"
   xmlns="http://www.w3.org/2000/svg"
   xmlns:svg="http://www.w3.org/2000/svg">
  <sodipodi:namedview
     id="namedview7"
     pagecolor="#000000"
     bordercolor="#000000"
     borderopacity="0.25"
     inkscape:showpageshadow="2"
     inkscape:pageopacity="0"
     inkscape:pagecheckerboard="0"
     inkscape:deskcolor="#d1d1d1"
     inkscape:document-units="px"
     showgrid="false"
     inkscape:zoom="0.70710678"
     inkscape:cx="222.73864"
     inkscape:cy="333.7544"
     inkscape:window-width="1280"
     inkscape:window-height="961"
     inkscape:window-x="1912"
     inkscape:window-y="57"
     inkscape:window-maximized="1"
     inkscape:current-layer="layer1" />
  <defs
     id="defs2" />
  <g
     inkscape:label="Layer 1"
     inkscape:groupmode="layer"
     id="layer1">
    <path
       id="rect3453"
       style="fill:#ffffff;stroke-width:2.117;stroke-linecap:round;stroke-linejoin:round;fill-opacity:1"
       d="M 25.4 6.8791666 C 22.468423 6.8791666 20.108333 9.2392561 20.108333 12.170833 L 20.108333 107.42083 C 20.108333 110.35241 22.468423 112.7125 25.4 112.7125 L 32.014583 112.7125 L 32.014583 24.077083 C 32.014583 21.145506 34.374672 18.785416 37.30625 18.785416 L 99.483332 18.785416 L 99.483332 12.170833 C 99.483332 9.2392561 97.123243 6.8791666 94.191666 6.8791666 L 25.4 6.8791666 z M 41.274999 22.754166 C 38.343422 22.754166 35.983333 25.114256 35.983333 28.045833 L 35.983333 123.29583 C 35.983333 126.22741 38.343422 128.5875 41.274999 128.5875 L 110.06667 128.5875 C 112.99824 128.5875 115.35833 126.22741 115.35833 123.29583 L 115.35833 28.045833 C 115.35833 25.114256 112.99824 22.754166 110.06667 22.754166 L 41.274999 22.754166 z M 45.246333 49.393367 L 71.407527 49.393367 L 71.407527 50.827388 C 69.624693 50.827388 68.268181 51.085772 67.338008 51.602534 C 66.666214 51.964269 66.136529 52.571469 65.748958 53.424129 C 65.4389 54.070082 65.28387 55.723735 65.28387 58.385066 L 65.28387 74.740657 L 84.778803 58.966426 C 87.491811 56.770181 88.848322 55.013176 88.848322 53.69543 C 88.848322 52.713579 88.292798 51.938431 87.181758 51.36999 C 86.613317 51.085772 85.20513 50.904902 82.957209 50.827388 L 82.957209 49.393367 L 103.45983 49.393367 L 103.45983 50.827388 C 101.62533 50.956578 100.17838 51.292477 99.119013 51.835078 C 98.085487 52.351842 95.682523 54.134685 91.910151 57.183589 L 76.523494 69.508418 L 95.010737 92.64654 C 97.620391 95.902149 99.868324 98.111325 101.75451 99.274043 C 103.12393 100.10086 104.57087 100.51428 106.09533 100.51428 L 106.09533 101.9483 L 78.732661 101.9483 L 78.732661 100.51428 C 80.463818 100.35925 81.574865 100.08795 82.065791 99.700373 C 82.582553 99.312802 82.840937 98.834793 82.840937 98.266352 C 82.840937 97.18115 81.652373 95.139922 79.275264 92.142695 L 67.221736 76.988581 L 65.28387 78.616389 L 65.28387 92.956599 C 65.28387 95.695444 65.4389 97.400772 65.748958 98.072566 C 66.059015 98.744357 66.653297 99.325721 67.531794 99.816645 C 68.410293 100.28173 69.81848 100.51428 71.756343 100.51428 L 71.756343 101.9483 L 45.246333 101.9483 L 45.246333 100.51428 L 46.990413 100.51428 C 48.514865 100.51428 49.742185 100.24297 50.672359 99.700373 C 51.344151 99.338639 51.860917 98.718519 52.222652 97.840022 C 52.506871 97.219905 52.648982 95.592091 52.648982 92.956599 L 52.648982 58.385066 C 52.648982 55.697897 52.506871 54.018406 52.222652 53.346614 C 51.938432 52.674822 51.357069 52.09346 50.478572 51.602534 C 49.625912 51.085772 48.463188 50.827388 46.990413 50.827388 L 45.246333 50.827388 L 45.246333 49.393367 z " />
  </g>
</svg>
